<svg width="20" height="20" viewBox="0 0 20 20" fill="none" xmlns="http://www.w3.org/2000/svg">
<path fill-rule="evenodd" clip-rule="evenodd" d="M10 17C10.2449 17 10.4813 17.09 10.6644 17.2527C10.8474 17.4155 10.9643 17.6397 10.993 17.883L11 18V19C10.9997 19.2549 10.9021 19.5 10.7272 19.6854C10.5522 19.8707 10.313 19.9822 10.0586 19.9972C9.80416 20.0121 9.55362 19.9293 9.35817 19.7657C9.16271 19.6021 9.0371 19.3701 9.007 19.117L9 19V18C9 17.7348 9.10536 17.4804 9.29289 17.2929C9.48043 17.1054 9.73478 17 10 17ZM5.05 14.95C5.23747 15.1375 5.34279 15.3918 5.34279 15.657C5.34279 15.9222 5.23747 16.1765 5.05 16.364L4.343 17.071C4.25075 17.1665 4.14041 17.2427 4.0184 17.2951C3.8964 17.3475 3.76518 17.3751 3.6324 17.3763C3.49962 17.3774 3.36794 17.3521 3.24505 17.3018C3.12215 17.2515 3.0105 17.1773 2.9166 17.0834C2.82271 16.9895 2.74846 16.8778 2.69818 16.755C2.6479 16.6321 2.6226 16.5004 2.62375 16.3676C2.6249 16.2348 2.65249 16.1036 2.7049 15.9816C2.75731 15.8596 2.83349 15.7492 2.929 15.657L3.636 14.95C3.82353 14.7625 4.07784 14.6572 4.343 14.6572C4.60816 14.6572 4.86247 14.7625 5.05 14.95ZM16.364 14.95L17.071 15.657C17.2532 15.8456 17.354 16.0982 17.3517 16.3604C17.3494 16.6226 17.2442 16.8734 17.0588 17.0588C16.8734 17.2442 16.6226 17.3494 16.3604 17.3517C16.0982 17.354 15.8456 17.2532 15.657 17.071L14.95 16.364C14.7678 16.1754 14.667 15.9228 14.6693 15.6606C14.6716 15.3984 14.7768 15.1476 14.9622 14.9622C15.1476 14.7768 15.3984 14.6716 15.6606 14.6693C15.9228 14.667 16.1754 14.7678 16.364 14.95ZM10.617 4.74773e-08C11.1046 -0.000106132 11.5754 0.177889 11.9409 0.500523C12.3064 0.823156 12.5415 1.26821 12.602 1.752L12.982 4.792C14.1297 5.44932 15.028 6.46743 15.5373 7.68802C16.0466 8.90861 16.1383 10.2633 15.7982 11.5414C15.4581 12.8195 14.7053 13.9494 13.6567 14.7555C12.6081 15.5615 11.3226 15.9985 10 15.9985C8.67742 15.9985 7.39189 15.5615 6.34331 14.7555C5.29474 13.9494 4.54187 12.8195 4.20177 11.5414C3.86167 10.2633 3.9534 8.90861 4.4627 7.68802C4.972 6.46743 5.87033 5.44932 7.018 4.792L7.398 1.752C7.45846 1.26821 7.69356 0.823156 8.0591 0.500523C8.42464 0.177889 8.89544 -0.000106132 9.383 4.74773e-08H10.617ZM10 6C8.93913 6 7.92172 6.42143 7.17157 7.17157C6.42143 7.92172 6 8.93913 6 10C6 11.0609 6.42143 12.0783 7.17157 12.8284C7.92172 13.5786 8.93913 14 10 14C11.0609 14 12.0783 13.5786 12.8284 12.8284C13.5786 12.0783 14 11.0609 14 10C14 8.93913 13.5786 7.92172 12.8284 7.17157C12.0783 6.42143 11.0609 6 10 6ZM2 9C2.26522 9 2.51957 9.10536 2.70711 9.29289C2.89464 9.48043 3 9.73478 3 10C3 10.2652 2.89464 10.5196 2.70711 10.7071C2.51957 10.8946 2.26522 11 2 11H1C0.734784 11 0.48043 10.8946 0.292893 10.7071C0.105357 10.5196 0 10.2652 0 10C0 9.73478 0.105357 9.48043 0.292893 9.29289C0.48043 9.10536 0.734784 9 1 9H2ZM19 9C19.2652 9 19.5196 9.10536 19.7071 9.29289C19.8946 9.48043 20 9.73478 20 10C20 10.2652 19.8946 10.5196 19.7071 10.7071C19.5196 10.8946 19.2652 11 19 11H18C17.7348 11 17.4804 10.8946 17.2929 10.7071C17.1054 10.5196 17 10.2652 17 10C17 9.73478 17.1054 9.48043 17.2929 9.29289C17.4804 9.10536 17.7348 9 18 9H19ZM17.071 2.93C17.2585 3.11753 17.3638 3.37184 17.3638 3.637C17.3638 3.90216 17.2585 4.15647 17.071 4.344L16.364 5.051C16.2718 5.14651 16.1614 5.22269 16.0394 5.2751C15.9174 5.32751 15.7862 5.3551 15.6534 5.35625C15.5206 5.3574 15.3889 5.3321 15.266 5.28182C15.1432 5.23154 15.0315 5.15729 14.9376 5.0634C14.8437 4.9695 14.7695 4.85785 14.7192 4.73495C14.6689 4.61206 14.6436 4.48038 14.6447 4.3476C14.6459 4.21482 14.6735 4.0836 14.7259 3.9616C14.7783 3.83959 14.8545 3.72925 14.95 3.637L15.657 2.93C15.8445 2.74253 16.0988 2.63721 16.364 2.63721C16.6292 2.63721 16.8835 2.74253 17.071 2.93ZM4.343 2.93L5.05 3.637C5.22766 3.82645 5.32463 4.07759 5.32042 4.33727C5.3162 4.59695 5.21112 4.84481 5.02741 5.02839C4.84369 5.21197 4.59576 5.31688 4.33608 5.32091C4.07639 5.32495 3.82533 5.22779 3.636 5.05L2.929 4.343C2.75134 4.15355 2.65437 3.90241 2.65858 3.64273C2.6628 3.38305 2.76788 3.13519 2.95159 2.95161C3.13531 2.76803 3.38324 2.66312 3.64292 2.65909C3.90261 2.65505 4.15368 2.75221 4.343 2.93ZM10.617 2H9.383L9.133 4H10.867L10.617 2Z" fill="white"/>
</svg>
