<svg width="20" height="20" viewBox="0 0 20 20" fill="none" xmlns="http://www.w3.org/2000/svg">
<path d="M2.98203 0.490874L10 7.50855L16.9816 0.527235C17.1358 0.363097 17.3216 0.231792 17.5278 0.141194C17.734 0.0505961 17.9564 0.00257135 18.1816 0C18.6638 0 19.1262 0.191544 19.4672 0.532495C19.8082 0.873445 19.9997 1.33587 19.9997 1.81805C20.0039 2.04095 19.9626 2.26236 19.8782 2.4687C19.7938 2.67504 19.6681 2.86195 19.5088 3.01796L12.4363 9.99928L19.5088 17.0715C19.8085 17.3646 19.9842 17.7616 19.9997 18.1805C19.9997 18.6627 19.8082 19.1251 19.4672 19.4661C19.1262 19.807 18.6638 19.9986 18.1816 19.9986C17.9499 20.0082 17.7187 19.9695 17.5027 19.885C17.2868 19.8005 17.0907 19.672 16.9271 19.5077L10 12.49L3.00021 19.4895C2.84659 19.6482 2.66306 19.7748 2.46023 19.8622C2.25739 19.9496 2.03926 19.9959 1.81842 19.9986C1.33623 19.9986 0.873778 19.807 0.532813 19.4661C0.191848 19.1251 0.000295822 18.6627 0.000295822 18.1805C-0.00394313 17.9576 0.0374137 17.7362 0.121828 17.5299C0.206243 17.3235 0.331935 17.1366 0.49119 16.9806L7.56371 9.99928L0.49119 2.92706C0.191536 2.63392 0.0158219 2.23695 0.000295822 1.81805C0.000295822 1.33587 0.191848 0.873445 0.532813 0.532495C0.873778 0.191544 1.33623 0 1.81842 0C2.25477 0.00545415 2.67294 0.181805 2.98203 0.490874Z" fill="white"/>
</svg>
